<svg width="24" height="24" viewBox="0 0 24 24" fill="none" xmlns="http://www.w3.org/2000/svg">
<path d="M10.7002 6.69995L15.3002 11.3C15.4002 11.4 15.4709 11.5083 15.5122 11.625C15.5535 11.7416 15.5745 11.8666 15.5752 12C15.5752 12.1333 15.5542 12.2583 15.5122 12.375C15.4702 12.4916 15.3995 12.6 15.3002 12.7L10.7002 17.3C10.5169 17.4833 10.2835 17.575 10.0002 17.575C9.71686 17.575 9.48353 17.4833 9.3002 17.3C9.11686 17.1166 9.0252 16.8833 9.0252 16.6C9.0252 16.3166 9.11686 16.0833 9.3002 15.9L13.2002 12L9.3002 8.09995C9.11686 7.91662 9.0252 7.68328 9.0252 7.39995C9.0252 7.11662 9.11686 6.88328 9.3002 6.69995C9.48353 6.51662 9.71686 6.42495 10.0002 6.42495C10.2835 6.42495 10.5169 6.51662 10.7002 6.69995Z" fill="white"/>
</svg>
