<svg width="10" height="10" viewBox="0 0 10 10" fill="none" xmlns="http://www.w3.org/2000/svg">
<path fill-rule="evenodd" clip-rule="evenodd" d="M8.05808 9.46176L1.04177 2.44546C0.655347 2.05911 0.655347 1.42877 1.04177 1.04234C1.4282 0.655913 2.05862 0.655835 2.44497 1.04226L9.46128 8.05857C9.8477 8.44491 9.8477 9.07526 9.46128 9.46169C9.07485 9.84811 8.44443 9.84819 8.05808 9.46176Z" fill="white"/>
<path fill-rule="evenodd" clip-rule="evenodd" d="M1.04177 8.05857L8.05808 1.04226C8.44443 0.655835 9.07477 0.655835 9.4612 1.04226C9.84762 1.42869 9.8477 2.05911 9.46128 2.44546L2.44497 9.46176C2.05862 9.84819 1.42828 9.84819 1.04185 9.46176C0.655425 9.07534 0.655347 8.44491 1.04177 8.05857Z" fill="white"/>
</svg>
