<svg width="306" height="140" viewBox="0 0 306 140" fill="none" xmlns="http://www.w3.org/2000/svg">
<g clip-path="url(#clip0_4_62)">
<path d="M136.874 122.137C136.874 132.002 128.879 140 119.02 140C109.161 140 101.166 132.002 101.166 122.137C101.166 112.272 109.161 104.274 119.02 104.274C128.879 104.274 136.874 112.272 136.874 122.137Z" fill="#027E75"/>
<path d="M67.8461 87.8271L77.4176 78.2445C81.0758 74.0563 83.3128 68.59 83.3128 62.5896C83.3128 49.4369 72.6558 38.7743 59.51 38.7743C46.3642 38.7743 35.7072 49.4369 35.7072 62.5896C35.7072 69.166 38.3699 75.1243 42.6819 79.4326L25.8478 96.2755C17.2299 87.6531 11.9044 75.7484 11.9044 62.5896C11.9044 36.2841 33.2184 14.9589 59.516 14.9589C85.8136 14.9589 107.122 36.2841 107.122 62.5896C107.122 71.4101 104.717 79.6606 100.543 86.747L109.179 95.3875C115.398 85.979 119.026 74.7103 119.026 62.5896C119.026 29.7077 92.3805 3.04822 59.516 3.04822C26.6515 3.04822 0 29.7077 0 62.5896C0 95.4715 26.6455 122.131 59.51 122.131C71.6243 122.131 82.887 118.501 92.2846 112.278L67.8401 87.8211L67.8461 87.8271Z" fill="#027E75"/>
<path d="M202.429 100.506C202.429 101.592 202.075 102.498 201.361 103.206C200.648 103.92 199.79 104.274 198.788 104.274H182.218C181.547 104.274 180.857 104.064 180.149 103.644C179.436 103.224 178.998 102.726 178.83 102.138L176.821 98.1176C173.055 100.548 169.228 102.432 165.336 103.77C161.444 105.108 157.114 105.78 152.346 105.78C144.226 105.78 138.139 103.584 134.079 99.1857C130.019 94.7874 127.992 88.4031 127.992 80.0326V35.6901C127.992 34.688 128.37 33.83 129.119 33.1159C129.875 32.4079 130.75 32.0479 131.758 32.0479H153.228C154.229 32.0479 155.111 32.4079 155.867 33.1159C156.622 33.83 157 34.688 157 35.6901V74.5003C157 80.0266 158.589 82.7927 161.768 82.7927C162.44 82.7927 163.291 82.6907 164.341 82.4807C165.384 82.2707 166.578 81.9167 167.915 81.4127H167.789C168.875 80.9086 169.9 80.4706 170.866 80.0926C171.825 79.7146 172.725 79.3186 173.564 78.8985V35.6901C173.564 34.688 173.942 33.83 174.692 33.1159C175.441 32.4079 176.323 32.0479 177.325 32.0479H198.794C199.796 32.0479 200.654 32.4079 201.367 33.1159C202.075 33.83 202.435 34.688 202.435 35.6901V100.5L202.429 100.506Z" fill="#027E75"/>
<path d="M211.341 104.274C210.417 104.274 209.667 103.896 209.08 103.14C208.492 102.39 208.204 101.508 208.204 100.506V33.9319C208.204 32.9299 208.498 32.0478 209.08 31.2918C209.661 30.5357 210.417 30.1637 211.341 30.1637H229.044C229.464 30.1637 229.986 30.2717 230.615 30.4757C231.245 30.6857 231.851 30.9557 232.433 31.2918C233.014 31.6278 233.518 32.0238 233.938 32.4858C234.358 32.9479 234.568 33.4279 234.568 33.9319V100.506C234.568 101.508 234.274 102.39 233.686 103.14C233.098 103.896 232.385 104.274 231.551 104.274H211.341Z" fill="#027E75"/>
<path d="M300.974 32.1738C301.982 32.1738 302.833 32.5339 303.547 33.2419C304.255 33.9559 304.615 34.856 304.615 35.9421V52.269L280.008 79.6486H302.228C303.229 79.6486 304.111 80.0266 304.867 80.7826C305.616 81.5327 305.994 82.4147 305.994 83.4168V100.5C305.994 101.586 305.616 102.492 304.867 103.2C304.111 103.914 303.235 104.268 302.228 104.268H243.977C242.976 104.268 242.112 103.914 241.404 103.2C240.691 102.486 240.337 101.586 240.337 100.5V84.9229L264.943 56.7873H245.74C244.739 56.7873 243.875 56.4092 243.168 55.6592C242.454 54.9031 242.1 54.0271 242.1 53.019V35.9361C242.1 34.85 242.454 33.9499 243.168 33.2359C243.875 32.5279 244.739 32.1678 245.74 32.1678H300.974V32.1738Z" fill="#027E75"/>
<path d="M234.778 13.3988C234.778 20.7972 228.78 26.7975 221.386 26.7975C213.991 26.7975 207.994 20.7972 207.994 13.3988C207.994 6.00034 213.985 0 221.386 0C228.786 0 234.778 6.00034 234.778 13.3988Z" fill="#027E75"/>
</g>
<defs>
<clipPath id="clip0_4_62">
<rect width="306" height="140" fill="white"/>
</clipPath>
</defs>
</svg>
