<svg width="18" height="16" viewBox="0 0 18 16" fill="none" xmlns="http://www.w3.org/2000/svg">
<path d="M16.7961 4.59339L16.796 4.59335C16.4407 4.35116 15.9566 4.44266 15.7143 4.79786L15.9179 4.93668L15.7143 4.79787L14.948 5.92149C14.6084 4.78151 13.9893 3.73707 13.1261 2.87394C11.7568 1.50463 9.93494 0.75 7.99838 0.75C6.06189 0.75 4.24 1.50463 2.87069 2.87394C0.0431032 5.70153 0.0430999 10.3018 2.8707 13.1293C4.28459 14.5432 6.14205 15.25 7.99838 15.25C9.85471 15.25 11.7122 14.5432 13.1261 13.1293C13.4301 12.8253 13.4301 12.3324 13.1261 12.0284C12.8221 11.7244 12.3292 11.7243 12.0252 12.0284C9.80493 14.2486 6.1919 14.2486 3.9717 12.0284C1.7515 9.80817 1.7515 6.19501 3.9717 3.97481C5.04762 2.89895 6.47683 2.30692 7.99845 2.30692C9.52007 2.30692 10.9493 2.89895 12.0252 3.97487L12.0252 3.97488C12.703 4.6526 13.1877 5.47164 13.454 6.36523L12.1115 5.44956C11.7563 5.20731 11.272 5.29886 11.0298 5.65404C10.7875 6.00923 10.8791 6.49354 11.2342 6.73579L14.0134 8.63134L14.0137 8.63157L14.033 8.64478C14.0354 8.64641 14.0378 8.64801 14.0402 8.64961L14.0468 8.65409L14.0478 8.65461C14.1063 8.69249 14.1677 8.7211 14.2302 8.74144C14.2346 8.74305 14.2402 8.74503 14.2469 8.74702C14.2629 8.75178 14.2764 8.75448 14.2816 8.75551L14.2819 8.75558L14.285 8.75618C14.3415 8.77014 14.4042 8.78008 14.4711 8.78008C14.7191 8.78008 14.9639 8.66136 15.1147 8.4403L15.1147 8.44025L17.0006 5.6752L17.0006 5.67518C17.2428 5.31995 17.1513 4.83565 16.7961 4.59339ZM14.2182 8.73662L14.2237 8.73886C14.2223 8.73831 14.2211 8.73785 14.2203 8.7375L14.2182 8.73662Z" fill="white" stroke="white" stroke-width="0.5"/>
</svg>
